<svg width="980" height="580" viewBox="0 0 980 580" fill="none" xmlns="http://www.w3.org/2000/svg">
<circle cx="208" cy="196" r="192" fill="#F16565" fill-opacity="0.8"/>
<circle cx="208" cy="196" r="128" fill="#C92E2E" fill-opacity="0.8"/>
<circle cx="211" cy="196" r="64" fill="#AA1212" fill-opacity="0.8"/>
<circle cx="488" cy="196" r="192" fill="#68C266" fill-opacity="0.8"/>
<circle cx="488" cy="196" r="128" fill="#2F9D2D" fill-opacity="0.8"/>
<circle cx="491" cy="196" r="64" fill="#147013" fill-opacity="0.8"/>
<circle cx="771" cy="196" r="192" fill="#6878CD" fill-opacity="0.8"/>
<circle cx="771" cy="196" r="128" fill="#2D3F9D" fill-opacity="0.8"/>
<circle cx="774" cy="196" r="64" fill="#27216A" fill-opacity="0.8"/>
<path d="M332.312 526.438L340.875 525.688H343.188C344.312 525.688 345.229 526.042 345.938 526.75C346.688 527.458 347.062 528.375 347.062 529.5V536.188C347.062 537.104 346.688 537.938 345.938 538.688C345.229 539.396 344.312 539.833 343.188 540C338.938 540.833 333.396 541.25 326.562 541.25C308.646 541.25 299.688 531.875 299.688 513.125V454.25C299.688 453.125 300.042 452.208 300.75 451.5C301.5 450.75 302.417 450.375 303.5 450.375H317.5C318.583 450.375 319.479 450.75 320.188 451.5C320.938 452.208 321.312 453.125 321.312 454.25V475.125H338.75C339.833 475.125 340.729 475.479 341.438 476.188C342.188 476.896 342.562 477.812 342.562 478.938V486.375C342.562 487.5 342.188 488.417 341.438 489.125C340.729 489.833 339.833 490.188 338.75 490.188H321.312V513.125C321.312 517.375 322.312 520.667 324.312 523C326.312 525.292 328.979 526.438 332.312 526.438ZM362.438 532.125C356.021 526.042 352.812 517.292 352.812 505.875C352.812 494.417 356.042 485.625 362.5 479.5C368.958 473.333 377.917 470.25 389.375 470.25C400.833 470.25 409.771 473.25 416.188 479.25C422.604 485.208 425.812 493.771 425.812 504.938V508.5C425.812 509.625 425.438 510.562 424.688 511.312C423.979 512.021 423.062 512.375 421.938 512.375H374.875C375.292 517.5 376.75 521.229 379.25 523.562C381.792 525.896 385.833 527.062 391.375 527.062C396.917 527.062 400.708 525.812 402.75 523.312C404.792 520.812 407.312 519.542 410.312 519.5H419.625C420.75 519.5 421.667 519.875 422.375 520.625C423.125 521.333 423.5 522.25 423.5 523.375C423.5 535.333 412.104 541.292 389.312 541.25C377.812 541.25 368.854 538.208 362.438 532.125ZM374.75 499.188H403.812C403.396 489.354 398.562 484.438 389.312 484.438C380.104 484.438 375.25 489.354 374.75 499.188ZM506.375 537.25C506.375 539.083 505.292 540 503.125 540H491.312C487.312 540 484.125 538.042 481.75 534.125L473.812 521.188C470.396 515.646 465.438 512.875 458.938 512.875V536.188C458.938 537.312 458.562 538.229 457.812 538.938C457.104 539.646 456.208 540 455.125 540H441.125C440 540 439.083 539.646 438.375 538.938C437.667 538.229 437.312 537.312 437.312 536.188V454.25C437.312 453.125 437.667 452.208 438.375 451.5C439.125 450.75 440.042 450.375 441.125 450.375H455.125C456.25 450.375 457.167 450.75 457.875 451.5C458.583 452.208 458.938 453.125 458.938 454.25V498.625C466.188 498.625 471.146 495.812 473.812 490.188L479.812 477.438C480.646 475.646 481.875 474.208 483.5 473.125C485.125 472.042 486.875 471.5 488.75 471.5H500.562C502.646 471.5 503.688 472.312 503.688 473.938C503.688 474.854 503.354 476.021 502.688 477.438L494.625 494.438C493.25 497.271 491.375 499.708 489 501.75C486.625 503.792 484.062 505.104 481.312 505.688C486.438 507.229 490.875 510.979 494.625 516.938L505.25 534.125C505.958 535.333 506.333 536.375 506.375 537.25ZM502 546.625L508.375 547.562C510.667 547.562 512.625 546.396 514.25 544.062C515.875 541.771 516.688 538.062 516.688 532.938V476.875C516.688 475.75 517.042 474.833 517.75 474.125C518.5 473.417 519.438 473.062 520.562 473.062H534.5C535.625 473.062 536.542 473.438 537.25 474.188C537.958 474.896 538.312 475.792 538.312 476.875V532.938C538.312 552.562 530.25 562.375 514.125 562.375C508.417 562.375 503.729 561.958 500.062 561.125C497.521 560.542 496.25 559.25 496.25 557.25V550.5C496.25 549.375 496.604 548.438 497.312 547.688C498.021 546.979 498.938 546.625 500.062 546.625H502ZM516.438 458.438V456.312C516.438 454.104 517.083 452.354 518.375 451.062C519.667 449.771 521.417 449.125 523.625 449.125H531.438C533.646 449.125 535.396 449.771 536.688 451.062C537.979 452.312 538.625 454.062 538.625 456.312V458.438C538.625 460.646 537.979 462.396 536.688 463.688C535.396 464.979 533.646 465.625 531.438 465.625H523.625C521.417 465.625 519.667 464.979 518.375 463.688C517.083 462.396 516.438 460.646 516.438 458.438ZM559.812 532.25C553.312 526.25 550.062 517.417 550.062 505.75C550.062 494.042 553.312 485.208 559.812 479.25C566.312 473.25 575.646 470.25 587.812 470.25C600.021 470.25 609.375 473.25 615.875 479.25C622.375 485.208 625.625 494.042 625.625 505.75C625.625 517.417 622.375 526.25 615.875 532.25C609.375 538.25 600.021 541.25 587.812 541.25C575.646 541.25 566.312 538.25 559.812 532.25ZM575.625 489.5C573.042 492.875 571.75 498.271 571.75 505.688C571.75 513.104 573.042 518.521 575.625 521.938C578.208 525.354 582.271 527.062 587.812 527.062C593.396 527.062 597.479 525.354 600.062 521.938C602.688 518.521 604 513.104 604 505.688C604 498.271 602.688 492.875 600.062 489.5C597.479 486.125 593.396 484.438 587.812 484.438C582.271 484.438 578.208 486.125 575.625 489.5ZM642.938 532.125C636.521 526.042 633.312 517.292 633.312 505.875C633.312 494.417 636.542 485.625 643 479.5C649.458 473.333 658.417 470.25 669.875 470.25C681.333 470.25 690.271 473.25 696.688 479.25C703.104 485.208 706.312 493.771 706.312 504.938V508.5C706.312 509.625 705.938 510.562 705.188 511.312C704.479 512.021 703.562 512.375 702.438 512.375H655.375C655.792 517.5 657.25 521.229 659.75 523.562C662.292 525.896 666.333 527.062 671.875 527.062C677.417 527.062 681.208 525.812 683.25 523.312C685.292 520.812 687.812 519.542 690.812 519.5H700.125C701.25 519.5 702.167 519.875 702.875 520.625C703.625 521.333 704 522.25 704 523.375C704 535.333 692.604 541.292 669.812 541.25C658.312 541.25 649.354 538.208 642.938 532.125ZM655.25 499.188H684.312C683.896 489.354 679.062 484.438 669.812 484.438C660.604 484.438 655.75 489.354 655.25 499.188Z" fill="black"/>
</svg>
